<svg width="24" height="24" viewBox="0 0 24 24" fill="none" xmlns="http://www.w3.org/2000/svg">
<path fill-rule="evenodd" clip-rule="evenodd" d="M2 12C2 6.47715 6.47715 2 12 2C17.5228 2 22 6.47715 22 12C22 17.5228 17.5228 22 12 22C6.47715 22 2 17.5228 2 12Z" fill="#0CB148"/>
<path d="M8.03409 18V16.4773L12.0739 12.517C12.4602 12.1269 12.7822 11.7803 13.0398 11.4773C13.2973 11.1742 13.4905 10.8807 13.6193 10.5966C13.7481 10.3125 13.8125 10.0095 13.8125 9.6875C13.8125 9.32008 13.7292 9.00568 13.5625 8.74432C13.3958 8.47917 13.1667 8.27462 12.875 8.13068C12.5833 7.98674 12.2519 7.91477 11.8807 7.91477C11.4981 7.91477 11.1629 7.99432 10.875 8.15341C10.5871 8.30871 10.3636 8.5303 10.2045 8.81818C10.0492 9.10606 9.97159 9.44886 9.97159 9.84659H7.96591C7.96591 9.10795 8.13447 8.46591 8.47159 7.92045C8.80871 7.375 9.27273 6.95265 9.86364 6.65341C10.4583 6.35417 11.1402 6.20455 11.9091 6.20455C12.6894 6.20455 13.375 6.35038 13.9659 6.64205C14.5568 6.93371 15.0152 7.33333 15.3409 7.84091C15.6705 8.34848 15.8352 8.92803 15.8352 9.57955C15.8352 10.0152 15.7519 10.4432 15.5852 10.8636C15.4186 11.2841 15.125 11.75 14.7045 12.2614C14.2879 12.7727 13.7027 13.392 12.9489 14.1193L10.9432 16.1591V16.2386H16.0114V18H8.03409Z" fill="white"/>
</svg>
