<svg width="32" height="32" viewBox="0 0 32 32" fill="none" xmlns="http://www.w3.org/2000/svg">
<g clip-path="url(#clip0_2742_20245)">
<circle cx="16" cy="16" r="16" fill="#E2E8F0"/>
<path d="M13.3039 10.229L8.21294 15.479C8.07659 15.6196 8 15.8103 8 16.0092C8 16.2081 8.07659 16.3988 8.21294 16.5395L13.3039 21.7895C13.4411 21.9261 13.6248 22.0017 13.8155 22C14.0062 21.9983 14.1886 21.9194 14.3234 21.7803C14.4583 21.6413 14.5347 21.4532 14.5364 21.2565C14.5381 21.0599 14.4647 20.8704 14.3323 20.729L10.4828 16.7592H23.2727C23.4656 16.7592 23.6506 16.6802 23.787 16.5395C23.9234 16.3989 24 16.2081 24 16.0092C24 15.8103 23.9234 15.6195 23.787 15.4789C23.6506 15.3382 23.4656 15.2592 23.2727 15.2592H10.4828L14.3323 11.2895C14.4017 11.2203 14.4571 11.1375 14.4953 11.046C14.5334 10.9545 14.5534 10.8561 14.5543 10.7565C14.5551 10.6569 14.5367 10.5582 14.5001 10.466C14.4636 10.3738 14.4096 10.2901 14.3413 10.2197C14.273 10.1493 14.1918 10.0936 14.1024 10.0558C14.013 10.0181 13.9173 9.99916 13.8207 10C13.7241 10.0009 13.6287 10.0216 13.54 10.0609C13.4512 10.1002 13.371 10.1573 13.3039 10.229Z" fill="#1E293B"/>
</g>
<defs>
<clipPath id="clip0_2742_20245">
<rect width="32" height="32" fill="white"/>
</clipPath>
</defs>
</svg>
