<svg width="120" height="120" viewBox="0 0 120 120" fill="none" xmlns="http://www.w3.org/2000/svg">
<rect width="120" height="120" rx="4" fill="black"/>
<path d="M36.952 95.94C32.6907 95.94 29.3067 95.282 26.8 93.966C24.356 92.65 22.57 91.0207 21.442 89.078C20.314 87.0727 19.5933 85.0673 19.28 83.062C18.9667 80.994 18.81 79.2393 18.81 77.798V57.964H10.538V45.18H18.81V32.866H34.884V45.18H45.036V57.964H34.884V77.328C34.884 79.208 35.3853 80.712 36.388 81.84C37.4533 82.9053 39.2393 83.438 41.746 83.438C42.8113 83.438 43.7513 83.3753 44.566 83.25C45.3807 83.062 45.788 82.968 45.788 82.968V95C45.788 95 44.8793 95.1567 43.062 95.47C41.3073 95.7833 39.2707 95.94 36.952 95.94ZM86.5282 95.94C83.3322 95.94 80.7002 95.4073 78.6322 94.342C76.5642 93.2767 75.0289 92.2113 74.0262 91.146C73.0235 90.018 72.4595 89.3287 72.3342 89.078H71.5822V95H55.5082V23.56H71.5822V51.102H72.3342C72.4595 50.8513 73.0235 50.162 74.0262 49.034C75.0289 47.906 76.5642 46.8407 78.6322 45.838C80.7002 44.7727 83.3322 44.24 86.5282 44.24C90.2255 44.24 93.4215 44.992 96.1162 46.496C98.8109 47.9373 101.036 49.9113 102.79 52.418C104.608 54.862 105.955 57.6193 106.832 60.69C107.772 63.7607 108.242 66.894 108.242 70.09C108.242 73.286 107.772 76.4193 106.832 79.49C105.955 82.5607 104.608 85.3493 102.79 87.856C101.036 90.3 98.8109 92.274 96.1162 93.778C93.4215 95.2193 90.2255 95.94 86.5282 95.94ZM81.5462 83.062C83.8649 83.062 85.8075 82.4353 87.3742 81.182C88.9409 79.866 90.1002 78.2367 90.8522 76.294C91.6042 74.2887 91.9802 72.2207 91.9802 70.09C91.9802 67.9593 91.6042 65.9227 90.8522 63.98C90.1002 61.9747 88.9409 60.3453 87.3742 59.092C85.8075 57.776 83.8649 57.118 81.5462 57.118C79.2275 57.118 77.2849 57.776 75.7182 59.092C74.1515 60.3453 72.9922 61.9747 72.2402 63.98C71.4882 65.9227 71.1122 67.9593 71.1122 70.09C71.1122 72.2207 71.4882 74.2887 72.2402 76.294C72.9922 78.2367 74.1515 79.866 75.7182 81.182C77.2849 82.4353 79.2275 83.062 81.5462 83.062Z" fill="white"/>
</svg>
