<svg width="24" height="24" viewBox="0 0 24 24" fill="none" xmlns="http://www.w3.org/2000/svg">
<path fill-rule="evenodd" clip-rule="evenodd" d="M2 12C2 6.47715 6.47715 2 12 2C17.5228 2 22 6.47715 22 12C22 17.5228 17.5228 22 12 22C6.47715 22 2 17.5228 2 12Z" fill="#0CB148"/>
<path d="M12.2102 18.1591C11.392 18.1591 10.6648 18.0189 10.0284 17.7386C9.39583 17.4583 8.89583 17.0682 8.52841 16.5682C8.16098 16.0682 7.96591 15.4905 7.94318 14.8352H10.0795C10.0985 15.1496 10.2027 15.4242 10.392 15.6591C10.5814 15.8902 10.8333 16.0701 11.1477 16.1989C11.4621 16.3277 11.8144 16.392 12.2045 16.392C12.6212 16.392 12.9905 16.3201 13.3125 16.1761C13.6345 16.0284 13.8864 15.8239 14.0682 15.5625C14.25 15.3011 14.339 15 14.3352 14.6591C14.339 14.3068 14.2481 13.9962 14.0625 13.7273C13.8769 13.4583 13.608 13.2481 13.2557 13.0966C12.9072 12.9451 12.4867 12.8693 11.9943 12.8693H10.9659V11.2443H11.9943C12.3996 11.2443 12.7538 11.1742 13.0568 11.0341C13.3636 10.8939 13.6042 10.697 13.7784 10.4432C13.9527 10.1856 14.0379 9.88826 14.0341 9.55114C14.0379 9.22159 13.964 8.93561 13.8125 8.69318C13.6648 8.44697 13.4545 8.25568 13.1818 8.11932C12.9129 7.98295 12.5966 7.91477 12.233 7.91477C11.8769 7.91477 11.5473 7.97917 11.2443 8.10795C10.9413 8.23674 10.697 8.42045 10.5114 8.65909C10.3258 8.89394 10.2273 9.17424 10.2159 9.5H8.1875C8.20265 8.84848 8.39015 8.27652 8.75 7.78409C9.11364 7.28788 9.59848 6.90151 10.2045 6.625C10.8106 6.3447 11.4905 6.20455 12.2443 6.20455C13.0208 6.20455 13.6951 6.35038 14.267 6.64205C14.8428 6.92992 15.2879 7.31818 15.6023 7.80682C15.9167 8.29545 16.0739 8.83523 16.0739 9.42614C16.0777 10.0814 15.8845 10.6307 15.4943 11.0739C15.108 11.517 14.6004 11.8068 13.9716 11.9432V12.0341C14.7898 12.1477 15.4167 12.4508 15.8523 12.9432C16.2917 13.4318 16.5095 14.0398 16.5057 14.767C16.5057 15.4186 16.3201 16.0019 15.9489 16.517C15.5814 17.0284 15.0739 17.4299 14.4261 17.7216C13.7822 18.0133 13.0436 18.1591 12.2102 18.1591Z" fill="white"/>
</svg>
