<svg width="24" height="24" viewBox="0 0 24 24" fill="none" xmlns="http://www.w3.org/2000/svg">
<path fill-rule="evenodd" clip-rule="evenodd" d="M12.5 3C12.2239 3 12 3.22386 12 3.5C12 3.77614 12.2239 4 12.5 4H18.2929L3.14645 19.1464C2.95118 19.3417 2.95118 19.6583 3.14645 19.8536C3.34171 20.0488 3.65829 20.0488 3.85355 19.8536L19 4.70711V10.5C19 10.7761 19.2239 11 19.5 11C19.7761 11 20 10.7761 20 10.5V3.5C20 3.36192 19.944 3.23692 19.8535 3.14644C19.8056 3.0985 19.7504 3.06234 19.6914 3.03794C19.6324 3.01349 19.5678 3 19.5 3H12.5Z" fill="black"/>
</svg>
